<?xml version="1.0" standalone="no"?>
<!DOCTYPE svg PUBLIC "-//W3C//DTD SVG 20010904//EN"
 "http://www.w3.org/TR/2001/REC-SVG-20010904/DTD/svg10.dtd">
<svg version="1.0" xmlns="http://www.w3.org/2000/svg"
 width="900.000000pt" height="1100.000000pt" viewBox="0 0 900.000000 1100.000000"
 preserveAspectRatio="xMidYMid meet">

<g transform="translate(0.000000,1100.000000) scale(0.100000,-0.100000)"
fill="#000000" stroke="none">
<path d="M3510 10809 c-126 -60 -247 -106 -316 -120 -61 -12 -62 -12 -94 14
-17 15 -35 27 -39 27 -11 0 -340 -96 -375 -109 -18 -7 -33 -8 -40 -2 -20 17
-104 41 -120 35 -25 -10 -19 -50 12 -73 24 -18 25 -20 7 -21 -11 0 -26 9 -33
20 -19 32 -39 24 -101 -38 -52 -53 -60 -57 -87 -50 -36 10 -132 -8 -156 -29
-19 -17 -116 -37 -257 -53 -52 -6 -105 -19 -135 -34 -28 -13 -77 -27 -108 -31
-32 -3 -68 -15 -82 -26 -13 -10 -68 -31 -123 -45 -171 -46 -272 -114 -365
-245 -57 -82 -114 -120 -191 -126 -85 -7 -104 -21 -111 -80 -5 -37 1 -75 25
-163 38 -139 47 -251 25 -305 -9 -21 -16 -50 -16 -65 0 -31 -13 -45 -52 -55
-43 -11 -55 -32 -37 -64 14 -24 14 -30 0 -59 -14 -30 -13 -44 8 -175 19 -116
22 -172 20 -309 l-4 -167 32 -45 c29 -41 30 -45 13 -51 -30 -9 -47 -85 -65
-280 -9 -99 -25 -217 -35 -263 -25 -104 -25 -124 0 -147 10 -9 28 -35 39 -56
l21 -39 -35 0 c-18 0 -37 -5 -41 -12 -11 -17 -53 -253 -60 -334 -12 -131 36
-214 124 -214 23 0 32 -5 32 -17 0 -20 64 -136 86 -153 8 -8 38 -14 66 -15 54
-1 68 -13 68 -57 0 -33 0 -33 -50 -8 -39 20 -107 29 -127 17 -15 -9 -63 46
-69 79 -11 64 -64 62 -167 -5 -83 -54 -132 -133 -186 -306 -45 -141 -63 -168
-166 -243 -67 -50 -94 -82 -95 -113 0 -22 8 -30 49 -48 65 -28 75 -27 110 11
27 29 32 31 46 18 12 -12 13 -23 4 -53 -12 -45 5 -82 46 -97 13 -5 34 -23 46
-39 12 -17 37 -35 54 -41 23 -8 37 -22 51 -51 11 -25 43 -61 81 -93 35 -29 81
-80 103 -113 46 -72 95 -112 190 -159 61 -30 73 -40 97 -86 16 -28 37 -61 49
-72 22 -21 29 -49 42 -146 4 -30 11 -60 15 -67 4 -6 12 -38 18 -70 6 -32 26
-89 44 -128 18 -38 35 -78 38 -88 4 -9 18 -22 32 -29 14 -6 25 -15 25 -20 0
-5 -9 -4 -19 2 -11 5 -27 10 -35 10 -23 0 -56 -59 -56 -97 0 -30 -3 -33 -29
-33 -40 0 -62 -32 -55 -80 5 -32 2 -40 -35 -77 -23 -22 -41 -48 -41 -58 0 -18
65 -89 89 -96 22 -7 6 -52 -29 -86 -38 -35 -38 -54 1 -97 34 -40 32 -52 -20
-99 -36 -32 -39 -51 -11 -74 19 -17 19 -17 0 -30 -42 -30 -15 -110 33 -101 32
6 40 -9 41 -77 1 -39 5 -51 21 -60 27 -14 21 -37 -21 -79 -58 -58 -38 -98 75
-152 20 -10 44 8 60 44 8 18 21 32 28 32 19 0 16 -14 -7 -35 -12 -11 -20 -31
-20 -51 0 -28 -6 -38 -40 -59 -22 -14 -40 -31 -40 -38 0 -6 -16 -29 -35 -50
-19 -21 -35 -47 -35 -58 0 -11 -9 -45 -20 -76 -14 -41 -17 -60 -9 -75 6 -11
12 -28 14 -39 2 -12 20 -38 39 -59 18 -21 37 -47 41 -59 3 -12 11 -21 16 -21
5 0 9 -11 9 -25 0 -15 8 -40 17 -58 12 -23 17 -62 19 -134 3 -123 8 -141 40
-149 17 -4 24 -13 24 -29 0 -13 4 -26 10 -30 6 -3 5 -15 -2 -30 l-11 -25 -29
40 c-27 37 -33 40 -77 40 -26 0 -51 -4 -56 -9 -6 -5 -23 -11 -40 -13 -41 -4
-75 -64 -75 -135 0 -42 4 -55 22 -67 12 -8 25 -13 30 -10 12 8 48 -6 48 -18 0
-7 -14 -23 -31 -38 -38 -31 -35 -51 15 -102 19 -19 36 -43 37 -53 2 -11 19
-28 38 -39 33 -19 34 -19 69 0 20 10 41 18 46 16 6 -2 20 -4 31 -5 34 -4 85
-31 91 -49 8 -25 39 -31 73 -14 39 21 53 20 74 -4 21 -25 39 -25 111 0 35 12
69 17 87 13 30 -6 109 22 109 38 0 4 16 1 36 -7 35 -15 37 -14 88 20 28 20 55
36 59 36 4 0 24 11 45 24 20 14 49 28 65 31 22 6 27 4 27 -12 0 -33 32 -53 83
-53 25 0 49 -5 52 -10 3 -5 17 -10 29 -10 18 0 25 -7 29 -29 12 -58 66 -80
101 -42 15 17 106 35 106 22 0 -3 -10 -15 -21 -27 -41 -43 -1 -74 95 -74 29 0
56 3 60 7 4 5 26 12 48 18 35 8 45 17 68 59 14 28 30 51 36 53 5 1 31 -33 58
-76 28 -44 58 -82 68 -84 10 -3 28 3 40 13 21 16 26 17 51 4 15 -8 36 -12 47
-9 10 3 30 3 44 -1 20 -5 25 -11 21 -24 -3 -10 2 -25 11 -35 16 -16 28 -16 65
-1 9 4 30 -5 54 -24 21 -16 41 -30 46 -30 4 0 2 -13 -4 -29 -15 -41 0 -55 78
-75 73 -18 90 -15 104 22 l9 27 1 -28 c1 -20 9 -33 31 -45 17 -9 33 -25 36
-34 17 -55 65 -62 116 -15 47 42 73 57 99 57 31 0 109 -66 109 -93 0 -28 9
-41 38 -56 25 -13 72 -7 72 9 0 18 18 11 25 -9 8 -26 30 -33 82 -25 57 8 143
74 143 108 0 39 23 50 48 21 12 -13 33 -27 46 -31 14 -3 32 -17 41 -30 21 -32
78 -32 146 1 34 16 57 22 68 16 32 -16 91 -11 109 9 22 26 29 25 36 -4 4 -17
17 -28 41 -36 42 -14 53 -8 71 37 l15 34 62 -6 c34 -3 76 -8 92 -10 51 -8 72
21 49 67 -16 32 -8 62 14 53 8 -3 47 -11 86 -17 95 -14 117 -25 110 -54 -7
-27 4 -49 47 -95 29 -31 31 -37 25 -83 -4 -36 -13 -57 -31 -73 -14 -13 -25
-33 -25 -45 0 -35 44 -83 90 -98 26 -9 45 -22 50 -36 5 -12 22 -30 39 -40 17
-10 31 -27 33 -38 2 -12 16 -27 31 -34 30 -15 62 -74 53 -98 -9 -23 14 -62 44
-74 22 -9 35 -8 65 4 21 9 39 16 41 16 2 0 4 -15 4 -34 0 -41 55 -119 87 -124
11 -2 36 6 54 17 45 27 46 27 41 -14 -3 -21 2 -45 11 -59 9 -12 17 -38 19 -56
2 -25 11 -38 33 -52 45 -26 76 -39 94 -37 9 1 28 -4 43 -11 21 -10 26 -18 22
-35 -13 -54 99 -88 121 -37 6 13 20 25 33 29 24 6 46 47 38 70 -3 7 1 13 8 13
21 0 43 32 51 75 4 22 18 59 32 82 24 42 26 43 77 43 59 0 86 19 86 61 0 45
12 67 41 80 37 15 52 41 43 74 -5 22 -3 25 18 25 32 0 48 18 48 52 0 39 29
107 51 118 10 6 27 10 37 10 24 0 72 54 72 80 0 40 -48 130 -75 140 -30 11
-116 5 -145 -10 -55 -29 -69 14 -19 61 17 16 41 29 53 29 29 0 42 10 60 44 14
27 13 33 -8 75 -13 25 -27 57 -31 71 -4 14 -15 36 -25 50 -17 25 -15 43 9 91
10 20 18 24 42 21 16 -2 50 1 75 8 41 12 46 11 68 -9 30 -28 53 -27 108 8 25
16 55 32 67 36 21 6 25 17 35 91 8 59 -15 78 -83 69 -42 -6 -51 -4 -60 12 -5
11 -6 25 -1 33 18 29 -22 82 -60 79 -14 -1 -33 1 -42 6 -16 6 -16 9 2 46 23
45 25 72 6 91 -24 24 -47 76 -36 83 13 8 13 52 0 60 -5 3 -9 22 -8 42 1 26 -5
41 -20 54 -26 21 -28 47 -4 56 9 3 24 12 32 19 20 16 92 43 156 58 55 12 84
30 84 52 0 8 7 14 15 14 8 0 23 4 33 9 56 29 139 41 152 21 9 -13 68 -40 88
-40 35 0 65 49 52 85 -5 12 -3 44 2 73 9 43 8 56 -6 76 -8 14 -12 27 -7 31 13
8 44 -6 59 -27 17 -24 63 -23 95 2 l25 20 28 -37 c50 -65 61 -73 108 -73 38 0
48 -5 70 -32 15 -18 31 -39 37 -46 12 -14 84 -8 105 9 7 5 15 49 19 97 4 48
13 96 21 107 16 22 18 58 5 83 -4 9 -11 34 -15 55 -6 35 -5 37 18 37 31 0 57
25 49 48 -4 9 -21 41 -40 70 -28 44 -33 62 -33 112 0 33 4 60 9 60 4 0 21 11
37 25 16 14 35 30 42 36 7 6 12 34 12 69 0 51 -3 61 -26 79 l-25 20 25 38 c32
47 32 58 2 84 -20 17 -24 28 -19 52 5 26 1 35 -42 71 -39 35 -46 46 -40 65 10
34 45 42 97 23 38 -13 52 -14 85 -4 34 10 42 18 62 67 13 32 21 65 17 78 -8
33 4 67 23 67 22 0 41 19 41 42 0 12 17 26 53 42 46 20 54 28 62 62 7 27 20
44 45 60 62 39 80 61 80 97 0 23 8 40 25 55 14 12 25 28 25 35 0 21 -21 77
-28 77 -4 0 -17 8 -30 18 -21 16 -22 21 -11 45 10 22 9 34 -5 70 -17 46 -14
97 11 132 7 11 13 28 13 39 0 11 11 31 24 45 21 23 25 41 34 141 10 123 6 140
-33 140 -12 0 -28 7 -35 15 -7 8 -18 15 -25 15 -15 0 -5 72 19 138 23 65 9 86
-51 78 -39 -5 -46 -3 -50 13 -6 22 -74 71 -98 71 -18 0 -18 2 -4 34 10 20 9
30 -4 50 -9 13 -25 27 -36 31 -31 9 -33 33 -6 84 21 43 28 49 65 55 22 3 49
15 59 25 10 10 36 28 59 41 74 42 79 92 15 175 -25 33 -35 57 -35 82 0 19 -8
58 -17 87 l-18 51 -66 3 c-37 2 -76 -2 -87 -8 -29 -15 -25 1 10 45 25 32 30
47 29 84 -1 25 3 66 9 91 6 26 9 56 5 68 -3 12 -1 22 4 22 4 0 19 19 32 43 13
23 38 53 57 65 19 12 46 40 61 63 l27 41 -29 54 c-25 46 -36 56 -69 65 -22 6
-48 22 -58 35 -28 35 -71 32 -100 -6 l-22 -30 -13 52 c-14 55 -28 78 -47 78
-6 0 -17 9 -24 20 -7 11 -22 20 -35 21 -14 0 -35 17 -60 50 -21 27 -52 58 -69
68 -16 11 -39 33 -49 50 -25 41 -43 47 -77 25 -42 -29 -85 -41 -125 -36 -30 3
-50 -4 -105 -36 -86 -51 -95 -53 -107 -28 -6 12 -22 23 -35 24 -14 2 -34 12
-45 22 -34 31 -84 48 -121 40 -18 -4 -36 -4 -41 1 -7 7 -81 1 -186 -17 -38 -6
-77 -43 -77 -72 0 -31 -24 -81 -41 -85 -13 -4 -24 6 -39 30 -11 19 -20 40 -20
47 0 7 -7 21 -15 32 -8 10 -15 33 -15 49 0 17 -4 36 -9 44 -6 10 -3 28 11 55
18 36 20 51 14 134 -4 51 -13 112 -21 135 -8 23 -15 55 -15 70 0 27 -38 77
-58 77 -5 0 -15 12 -21 28 -16 38 -95 122 -116 122 -9 0 -25 -5 -36 -11 -16
-8 -25 -7 -38 5 -21 19 -51 20 -121 5 -28 -6 -54 -9 -56 -6 -3 3 2 17 11 30
40 62 -9 120 -113 133 -55 7 -57 6 -85 -27 -16 -19 -33 -44 -38 -56 -4 -13
-16 -23 -26 -23 -10 0 -36 -12 -58 -25 -22 -14 -50 -25 -62 -25 -12 0 -25 -5
-29 -11 -4 -7 -15 -2 -29 14 -13 13 -40 28 -61 32 -21 3 -45 17 -56 30 -10 13
-38 31 -63 41 -25 11 -45 24 -46 29 -1 6 -3 48 -5 95 -6 171 -17 233 -51 285
-7 11 -13 27 -13 36 0 9 -8 27 -19 40 -10 13 -16 30 -14 36 3 7 -1 29 -7 48
-11 33 -10 37 19 64 26 24 30 33 23 53 -5 12 -7 40 -4 60 3 28 -2 45 -19 70
-31 44 -37 48 -84 48 -54 0 -84 21 -77 55 3 17 -2 36 -15 53 -11 15 -22 35
-26 45 -6 17 -105 187 -114 197 -2 2 -23 5 -46 7 -23 1 -56 5 -74 8 -26 6 -32
4 -37 -13 -4 -11 -16 -32 -27 -46 l-20 -26 -38 19 c-37 19 -38 19 -82 -1 -24
-12 -56 -20 -71 -19 -14 1 -29 -3 -33 -9 -3 -6 -30 -28 -59 -50 -37 -26 -60
-37 -74 -33 -13 3 -34 -4 -54 -18 -43 -30 -49 -39 -46 -69 1 -14 -5 -36 -15
-50 -9 -13 -17 -39 -17 -57 0 -26 -4 -33 -20 -33 -11 0 -20 -5 -20 -12 0 -6
-7 -4 -18 5 -10 10 -27 17 -38 17 -10 0 -35 18 -55 41 l-36 42 -52 -13 c-46
-11 -54 -10 -72 5 -10 10 -24 36 -29 57 -6 21 -24 53 -40 72 -17 18 -30 41
-30 51 0 9 -21 37 -46 62 -47 47 -64 78 -64 117 0 34 -28 53 -89 59 -30 4 -62
14 -73 24 -19 17 -21 17 -58 -5 l-39 -22 -12 42 c-7 24 -18 50 -26 59 -7 8
-13 20 -13 26 0 6 -7 16 -15 23 -11 9 -12 17 -6 23 6 6 8 37 5 71 -2 34 -6 90
-8 126 -2 36 -6 72 -10 80 -4 10 10 35 39 69 25 30 44 59 42 65 -2 6 -19 56
-38 110 -32 92 -37 101 -76 125 -32 20 -42 32 -43 52 0 55 -49 288 -70 337
-28 65 -43 66 -160 11z m161 -207 c11 -70 23 -142 25 -159 4 -25 16 -40 48
-62 38 -27 47 -40 76 -121 l33 -91 -57 -58 c-59 -59 -69 -86 -37 -96 15 -4 20
-18 25 -63 9 -90 5 -165 -10 -187 -20 -28 -17 -44 9 -50 24 -6 59 -71 72 -132
6 -30 10 -33 43 -33 19 0 44 7 54 17 16 15 19 15 36 0 10 -9 40 -17 72 -19
l55 -3 5 -40 c7 -51 35 -98 71 -119 18 -11 29 -25 29 -40 0 -12 14 -35 30 -51
17 -16 37 -52 46 -79 17 -55 74 -110 103 -102 9 3 32 8 52 11 33 6 37 4 63
-35 22 -34 32 -41 49 -36 16 4 28 -2 47 -25 28 -33 60 -32 60 2 0 12 7 19 18
19 21 0 42 38 42 77 0 15 9 37 21 49 17 18 19 26 10 42 -9 17 -6 23 14 36 13
9 34 15 47 14 14 -1 48 17 87 47 52 40 71 49 98 46 18 -1 33 2 33 7 0 5 11 14
25 20 21 10 32 9 55 -3 45 -23 66 -18 102 24 24 28 38 37 48 31 7 -4 27 -6 44
-3 30 4 33 2 84 -90 28 -51 52 -98 52 -104 0 -5 9 -18 20 -28 15 -14 17 -22 9
-37 -9 -17 -5 -26 22 -54 18 -19 43 -34 55 -34 50 0 81 -13 97 -39 12 -20 13
-31 5 -39 -7 -7 -7 -19 0 -41 9 -26 8 -31 -14 -46 -24 -15 -25 -21 -21 -85 2
-41 11 -79 21 -94 9 -14 16 -33 16 -42 0 -9 8 -28 18 -42 25 -37 43 -94 42
-134 -1 -80 11 -228 20 -252 6 -18 26 -34 55 -47 25 -11 52 -30 60 -43 11 -16
30 -26 58 -30 27 -5 53 -18 74 -38 28 -27 36 -30 55 -21 85 41 146 66 167 67
18 1 27 10 35 33 6 17 21 43 33 56 19 23 25 24 63 16 47 -11 80 -26 80 -37 0
-4 -14 -25 -30 -46 -51 -67 -35 -130 24 -99 17 9 60 22 95 30 61 13 65 12 86
-7 19 -18 26 -19 54 -9 30 10 35 9 63 -17 16 -16 41 -50 54 -76 17 -33 31 -48
44 -48 16 0 20 -7 20 -35 0 -20 7 -46 16 -59 10 -16 17 -59 21 -128 5 -93 4
-108 -16 -146 -16 -32 -19 -47 -11 -61 5 -11 10 -33 10 -49 0 -16 7 -35 15
-42 8 -7 15 -21 15 -32 0 -11 9 -31 20 -45 11 -14 20 -31 20 -37 0 -6 16 -29
35 -51 l35 -40 19 23 c11 12 25 21 32 20 9 -2 16 17 21 57 11 85 22 105 57
105 16 0 31 5 33 11 2 7 30 12 66 13 54 2 62 -1 62 -16 0 -24 27 -23 42 2 7
11 21 20 31 20 25 0 68 -24 90 -50 12 -14 24 -19 37 -15 17 5 20 2 20 -26 0
-31 1 -31 37 -26 20 4 71 26 112 50 55 32 77 41 79 31 4 -17 19 -18 24 -3 3 9
10 9 26 0 18 -10 23 -9 28 4 3 8 11 15 18 15 6 0 28 9 48 19 l36 20 12 -29 c6
-15 24 -33 38 -39 34 -15 87 -77 96 -115 6 -25 10 -28 36 -23 23 5 35 0 62
-25 28 -26 34 -39 38 -87 3 -31 9 -54 14 -53 12 5 26 -18 26 -44 0 -17 8 -22
42 -27 28 -4 45 -2 50 6 14 21 9 50 -12 72 -18 19 -19 23 -6 35 13 10 21 8 47
-14 17 -14 41 -26 54 -26 16 0 30 -11 45 -37 26 -45 17 -68 -42 -109 -21 -15
-48 -45 -60 -66 -15 -27 -31 -41 -50 -45 -33 -6 -32 -5 -13 -44 14 -26 14 -36
2 -86 -11 -42 -12 -63 -4 -80 9 -20 6 -28 -14 -51 -29 -31 -62 -100 -54 -111
2 -5 18 -14 35 -21 25 -10 34 -10 55 4 13 9 42 16 64 16 36 0 40 -3 51 -34 6
-19 8 -45 5 -59 -4 -14 -2 -28 4 -31 6 -4 11 -14 11 -23 0 -9 16 -35 35 -59
50 -60 47 -85 -15 -123 -27 -17 -50 -35 -50 -41 0 -5 -20 -10 -45 -10 -43 0
-45 -1 -78 -59 -19 -32 -38 -68 -42 -80 -8 -25 25 -77 55 -86 48 -15 -4 -83
-82 -107 -102 -31 -107 -31 -117 -5 -11 28 -84 53 -128 44 -42 -8 -82 3 -88
24 -5 14 -16 19 -46 19 -21 0 -39 4 -39 10 0 5 11 38 23 72 19 50 22 69 14 93
-18 55 -34 57 -87 9 -22 -20 -43 -34 -46 -31 -11 11 -94 -22 -134 -53 l-40
-32 0 26 c0 13 -4 27 -10 31 -5 3 -7 12 -4 20 7 17 -29 41 -76 50 -19 4 -43
14 -52 22 -15 13 -20 13 -46 -2 -27 -17 -31 -17 -53 -1 -13 9 -34 16 -47 16
-46 0 -138 33 -183 66 -25 18 -50 30 -55 25 -5 -4 -40 -21 -77 -37 -77 -32
-110 -71 -85 -101 11 -14 9 -15 -18 -9 -23 5 -39 1 -67 -18 l-37 -25 -26 39
c-15 22 -37 43 -50 46 -13 3 -28 12 -35 20 -7 8 -30 14 -58 14 -43 0 -48 -3
-65 -35 -13 -23 -27 -35 -40 -35 -27 0 -37 -8 -66 -49 l-23 -34 -85 6 c-46 3
-88 10 -91 16 -12 19 -79 37 -178 47 -45 5 -54 3 -60 -13 -3 -10 -15 -29 -25
-43 -17 -22 -27 -24 -98 -26 -75 -1 -79 0 -85 23 -7 28 -52 53 -63 35 -4 -6
-13 -7 -20 -3 -20 12 -63 1 -98 -25 -45 -35 -115 -58 -126 -42 -4 7 -8 16 -8
21 0 4 -10 7 -23 7 -13 0 -27 4 -33 9 -5 5 -25 11 -44 13 -28 2 -38 9 -50 34
-8 17 -27 39 -42 47 -32 18 -37 59 -13 91 8 10 12 23 9 28 -4 5 4 19 16 30 43
40 45 75 8 157 -10 24 -18 44 -16 45 2 1 27 17 56 35 61 38 71 74 26 91 -25
10 -54 33 -54 44 0 3 16 6 35 6 29 0 39 7 69 45 35 46 38 73 10 96 -8 6 -14
17 -14 24 0 8 -5 15 -11 17 -6 2 -8 14 -4 31 6 24 12 27 51 27 47 0 80 24 91
68 7 29 -37 78 -78 87 -25 6 -29 11 -29 41 0 43 -25 60 -112 74 -37 5 -78 14
-91 19 -13 5 -35 7 -49 4 -25 -5 -26 -3 -24 42 1 47 7 56 48 69 9 3 21 14 27
25 9 16 5 28 -24 65 -19 26 -35 50 -35 55 0 16 -51 71 -65 71 -27 0 -79 56
-106 115 -33 69 -36 95 -11 95 28 0 80 37 96 68 12 24 24 31 59 36 42 6 46 10
63 54 20 51 20 73 -2 85 -8 4 -14 14 -14 21 0 8 -7 19 -15 26 -13 11 -22 10
-51 -3 -19 -9 -37 -24 -40 -32 -4 -8 -14 -15 -24 -15 -28 0 -33 43 -10 100
l20 50 -36 40 c-20 22 -42 40 -49 40 -8 0 -22 10 -32 23 -53 63 -121 70 -230
21 -17 -8 -36 -14 -41 -14 -17 0 -25 38 -18 85 5 32 3 47 -9 58 -13 14 -20 14
-67 -3 -51 -17 -99 -25 -144 -21 -29 1 -41 61 -13 61 25 0 35 62 20 120 -7 25
-15 46 -19 48 -31 12 -34 20 -17 53 9 19 38 55 63 82 36 36 53 47 77 47 51 0
70 35 43 81 -22 36 -90 109 -103 109 -7 0 -24 9 -38 20 -27 21 -62 26 -72 10
-3 -5 -24 -10 -45 -10 -66 0 -105 -74 -60 -115 20 -18 20 -18 -2 -29 -13 -7
-28 -31 -37 -59 -16 -46 -17 -48 -33 -30 -9 10 -20 30 -23 45 -6 22 -14 29
-44 33 -20 4 -48 13 -63 21 -31 17 -56 9 -68 -20 -10 -27 -95 -53 -116 -35 -8
6 -14 17 -14 25 0 17 -34 36 -53 28 -8 -3 -18 -1 -22 5 -10 17 -41 13 -81 -10
-45 -25 -66 -22 -74 11 -8 34 -40 37 -96 10 -42 -21 -46 -21 -70 -5 -15 9 -40
32 -56 51 -17 19 -39 34 -49 34 -19 0 -66 44 -102 95 -18 25 -60 34 -72 15 -9
-14 -35 -12 -35 3 0 7 8 17 19 24 37 23 33 53 -13 97 -47 45 -90 112 -81 127
4 5 13 9 21 9 8 0 14 4 14 9 0 6 29 24 65 41 102 49 109 92 22 144 -52 30 -60
31 -80 12 -12 -12 -22 -12 -72 5 -32 10 -79 19 -104 18 -94 -1 -100 0 -141 37
-22 20 -40 42 -40 49 0 8 -13 16 -30 20 -27 6 -30 10 -30 45 0 42 -24 146 -38
164 -5 6 -12 26 -15 43 -4 18 -37 113 -75 210 -38 98 -72 191 -76 207 -4 16
-16 41 -27 54 -10 14 -19 30 -19 36 0 7 -6 18 -12 24 -7 7 -14 23 -15 35 0 12
-4 31 -7 42 -7 23 5 39 56 78 22 16 39 23 43 17 3 -5 15 -10 26 -10 13 0 24
-10 30 -30 12 -33 39 -41 39 -11 0 11 6 21 13 24 9 3 9 7 -1 19 -10 13 -10 17
3 22 8 3 15 17 15 32 0 25 1 26 18 11 16 -15 28 -13 157 27 77 23 170 51 208
61 l67 18 26 -24 c19 -18 36 -24 67 -23 54 1 224 60 358 122 l104 49 17 -39
c10 -22 27 -96 39 -166z m-1346 -199 c19 -21 35 -44 35 -51 0 -7 7 -15 15 -18
8 -4 15 -12 15 -19 0 -7 9 -23 19 -37 11 -13 24 -43 31 -66 6 -24 40 -117 75
-208 36 -91 65 -173 65 -182 0 -10 8 -34 18 -54 18 -35 39 -122 44 -183 2 -21
11 -34 30 -43 15 -7 43 -32 63 -56 34 -42 71 -62 106 -57 9 1 19 -7 22 -20 l6
-21 30 21 c28 20 32 20 84 7 31 -8 66 -20 78 -27 20 -10 25 -9 38 8 16 20 16
20 59 -9 51 -35 47 -45 -37 -84 -65 -31 -111 -70 -111 -96 0 -23 31 -68 84
-125 l40 -43 -29 -30 -28 -30 19 -35 c10 -19 20 -35 23 -35 2 0 19 10 38 21
33 21 35 21 48 3 8 -11 15 -23 15 -27 0 -15 55 -64 80 -72 14 -4 46 -27 72
-51 60 -56 85 -62 143 -34 25 12 47 21 48 19 2 -2 8 -16 14 -30 9 -21 20 -28
50 -31 21 -3 41 -1 44 4 10 15 59 38 59 27 0 -5 14 -9 30 -9 22 0 39 -9 60
-34 l30 -34 63 20 c34 10 63 22 65 26 12 34 21 37 51 19 16 -9 38 -17 50 -17
14 0 25 -11 35 -33 23 -56 96 -90 96 -46 0 30 22 99 31 99 4 0 19 -4 32 -9 18
-7 30 -6 43 5 21 16 25 9 -46 66 -32 25 -33 28 -20 52 11 22 21 26 55 26 22 0
46 5 52 11 9 9 19 6 39 -10 15 -11 32 -21 38 -21 12 -1 82 -87 92 -114 5 -13
-1 -16 -27 -16 -47 -1 -127 -76 -168 -157 l-31 -62 30 -6 c53 -12 68 -120 17
-127 -17 -2 -21 -9 -19 -28 2 -14 4 -38 5 -55 2 -27 6 -30 46 -37 40 -7 117 4
187 27 20 6 21 4 13 -51 -7 -51 -6 -59 14 -75 29 -24 61 -24 116 3 59 28 115
27 150 -5 22 -20 85 -68 114 -88 5 -4 -1 -34 -13 -70 -16 -43 -19 -64 -11 -67
6 -2 11 -16 11 -32 0 -26 2 -28 39 -26 30 1 47 10 72 36 l34 35 3 -25 c2 -14
10 -28 17 -32 10 -6 11 -16 3 -43 -10 -30 -16 -35 -54 -41 -35 -5 -47 -12 -63
-39 -29 -49 -64 -69 -111 -62 -44 6 -47 2 -25 -27 8 -11 15 -28 15 -38 0 -10
11 -41 25 -69 14 -27 23 -54 20 -59 -4 -6 2 -13 12 -17 10 -3 33 -20 51 -37
18 -17 40 -31 49 -31 9 0 26 -19 38 -42 11 -23 31 -53 43 -66 27 -29 28 -47 2
-47 -11 0 -33 -14 -49 -32 -23 -26 -26 -36 -18 -50 14 -22 2 -35 -17 -19 -9 8
-28 10 -50 6 -31 -6 -35 -11 -41 -46 -9 -50 7 -71 44 -62 14 3 32 15 39 25 15
21 48 19 192 -8 129 -24 122 -21 119 -57 -4 -42 4 -53 40 -60 17 -4 40 -16 51
-27 20 -20 20 -23 5 -46 -13 -20 -24 -24 -64 -24 -48 0 -48 0 -66 -47 -15 -39
-16 -48 -4 -57 8 -6 22 -23 32 -38 16 -26 16 -28 -6 -62 -18 -28 -28 -35 -55
-36 -18 0 -42 -5 -53 -10 -16 -9 -21 -7 -29 15 -8 22 -16 25 -54 25 -27 0 -48
-5 -53 -13 -4 -8 -20 -22 -36 -32 -15 -9 -27 -24 -27 -31 0 -14 -10 -17 -47
-15 -11 1 -24 -3 -28 -9 -3 -5 -10 -8 -15 -5 -5 3 -17 -9 -26 -27 -13 -24 -14
-36 -5 -50 6 -10 11 -31 11 -46 0 -37 28 -63 56 -52 12 5 31 24 44 44 22 36
49 46 79 27 28 -18 42 -1 36 44 -6 40 -5 44 32 74 l38 32 27 -32 c15 -18 40
-38 55 -44 l27 -11 -62 -38 c-34 -20 -62 -42 -62 -48 0 -5 7 -24 16 -41 31
-60 34 -67 34 -88 0 -34 -18 -58 -40 -52 -26 7 -38 -22 -21 -50 11 -17 10 -22
-3 -29 -11 -6 -14 -17 -10 -36 10 -50 -14 -56 -89 -23 -38 17 -69 26 -72 20
-4 -5 -13 -5 -25 1 -15 8 -31 3 -77 -26 -36 -24 -58 -33 -61 -25 -5 16 -69 42
-86 35 -8 -3 -17 -12 -20 -21 -4 -10 -14 -13 -30 -9 -19 5 -25 1 -30 -19 -5
-20 -13 -25 -37 -25 -35 0 -89 -34 -89 -56 0 -16 -2 -16 -24 -8 -22 8 -20 31
2 39 11 3 24 17 30 31 10 20 8 32 -8 64 -11 22 -25 40 -30 40 -6 0 -10 18 -10
40 0 22 -3 40 -7 40 -15 0 -73 -40 -73 -50 0 -5 -9 -10 -19 -10 -11 0 -23 -5
-26 -11 -4 -6 -13 -8 -21 -5 -8 3 -21 -7 -31 -24 -9 -17 -25 -30 -34 -30 -9 0
-24 -9 -34 -20 -21 -23 -57 -26 -74 -7 -8 10 -4 20 19 42 21 20 28 35 24 48
-4 11 2 27 14 40 32 36 39 59 40 125 l0 63 -38 -6 c-34 -6 -43 -3 -78 29 -25
23 -51 36 -73 38 -34 3 -34 3 -34 -39 0 -30 -6 -46 -20 -56 -19 -14 -19 -16 9
-52 21 -28 25 -40 17 -48 -9 -9 -18 -4 -38 21 -17 22 -33 32 -47 31 -11 -2
-31 3 -44 10 -19 10 -26 10 -38 0 -13 -11 -21 -7 -50 25 -32 35 -36 37 -79 30
-30 -4 -45 -3 -45 5 0 6 -8 11 -19 11 -10 0 -24 7 -31 15 -10 12 -7 21 15 51
22 29 25 38 14 45 -8 5 -24 7 -36 4 -12 -3 -25 -1 -28 5 -8 13 -42 13 -50 0
-3 -5 -7 -25 -9 -43 -6 -72 -26 -74 -50 -7 -10 28 -22 52 -26 55 -12 8 -121
-15 -158 -33 -35 -17 -36 -18 -86 -154 -20 -54 -32 -60 -41 -20 -6 30 -62 72
-96 72 -19 0 -21 4 -14 38 4 20 13 55 21 77 7 22 14 48 14 58 0 21 35 57 55
57 8 0 15 9 15 20 0 22 46 50 83 50 14 0 50 16 82 35 32 19 62 36 69 38 15 6
-16 59 -43 73 -33 17 -58 43 -70 72 -10 25 -15 27 -57 23 -26 -2 -57 2 -70 9
-19 11 -27 10 -48 -4 -14 -9 -32 -16 -39 -16 -8 0 -22 -18 -32 -40 -10 -22
-21 -40 -26 -40 -4 0 -24 30 -45 68 -20 37 -38 69 -40 71 -6 6 -64 -21 -64
-30 0 -5 9 -18 20 -29 23 -23 26 -42 5 -34 -8 3 -24 -1 -36 -10 -21 -14 -25
-13 -71 20 l-48 36 -25 -31 c-14 -16 -36 -33 -48 -36 -57 -17 -57 -17 -51 -1
5 13 -2 16 -34 16 -23 0 -45 -6 -52 -15 -7 -8 -24 -15 -38 -15 -16 0 -38 -14
-62 -40 l-37 -40 -13 30 c-7 17 -25 37 -40 45 -25 13 -30 13 -41 -1 -8 -10
-22 -14 -39 -10 -15 3 -32 0 -39 -7 -8 -8 -11 -4 -11 17 0 15 -11 41 -25 57
-13 16 -22 36 -19 44 4 8 1 15 -5 15 -17 0 -13 22 10 46 l20 22 -27 21 c-15
11 -33 21 -41 21 -8 0 -32 14 -53 31 -24 19 -45 29 -55 25 -17 -6 -114 43
-152 77 -13 11 -29 17 -40 13 -14 -5 -23 0 -31 18 -9 21 -7 27 29 55 44 36 48
57 18 95 -29 37 -54 33 -87 -14 -20 -29 -34 -39 -53 -40 -15 0 -29 6 -32 14
-3 8 -18 16 -34 18 -21 2 -29 10 -37 37 -5 19 -19 37 -33 44 -13 5 -23 14 -23
18 0 4 -15 11 -32 14 -18 4 -51 22 -73 40 -34 28 -50 33 -100 36 -34 2 -69 -2
-82 -9 -12 -7 -27 -12 -34 -12 -7 0 -22 -8 -33 -18 -30 -27 -104 -54 -112 -41
-4 7 -14 3 -28 -9 -11 -10 -27 -22 -34 -26 -17 -10 -82 40 -82 63 0 10 -7 24
-15 31 -8 7 -15 23 -15 35 0 29 -24 49 -50 42 -13 -3 -24 1 -30 14 -6 10 -14
18 -18 18 -31 -5 -62 3 -62 16 0 8 -13 29 -29 47 l-29 33 23 100 c12 55 27
170 34 255 11 141 27 250 37 250 4 0 5 -1 97 -80 45 -39 65 -50 92 -50 19 0
35 2 35 5 0 3 -20 14 -44 25 -34 14 -46 26 -55 53 -7 20 -19 41 -28 49 -9 7
-38 44 -65 83 l-49 70 6 155 c6 139 4 170 -18 299 l-25 144 25 53 c27 54 56
73 80 52 10 -8 13 -7 13 5 0 9 -5 19 -10 22 -15 9 -10 94 7 127 8 16 13 62 13
116 0 55 4 92 12 100 9 9 8 12 -4 12 -11 0 -22 27 -42 105 -14 57 -26 123 -26
145 0 40 0 40 38 40 97 0 183 52 256 155 52 72 130 142 196 175 25 13 92 36
150 51 121 33 113 32 105 19 -8 -13 11 -13 36 1 11 5 17 14 14 20 -4 5 3 9 15
9 12 0 18 5 15 10 -4 6 9 10 31 10 20 0 51 9 69 20 45 28 121 50 175 50 68 1
223 34 250 53 14 9 42 17 63 17 31 0 44 -7 72 -37z m-1565 -2874 c0 -8 25 -10
80 -7 l80 5 24 -51 c33 -70 75 -100 127 -91 21 4 39 10 39 14 0 4 22 13 50 20
27 7 65 23 82 35 54 35 86 46 138 46 40 0 55 -6 90 -35 23 -19 49 -35 58 -35
32 0 82 -44 94 -82 7 -24 17 -38 28 -38 9 0 25 -7 36 -15 10 -8 38 -15 61 -15
36 0 46 5 69 35 28 37 48 44 57 21 3 -8 -11 -27 -34 -47 -21 -18 -39 -41 -39
-52 0 -27 38 -77 60 -77 10 0 54 -20 98 -45 44 -25 91 -45 104 -45 14 0 35
-11 48 -25 13 -14 31 -25 39 -25 9 0 22 -4 30 -9 12 -8 12 -12 2 -25 -18 -21
-7 -74 24 -116 14 -19 25 -46 25 -61 0 -15 6 -29 13 -31 15 -6 95 -1 123 7 17
5 25 -1 42 -29 12 -20 27 -36 33 -36 6 0 31 18 55 40 24 22 52 40 62 40 9 0
28 7 40 16 21 15 25 15 42 -1 17 -15 25 -16 70 -5 35 8 56 20 67 37 14 20 19
23 27 12 6 -8 26 -22 44 -32 26 -15 39 -17 60 -9 15 6 39 13 55 16 16 4 27 13
27 24 1 10 11 0 26 -25 34 -56 66 -58 95 -8 29 48 67 66 120 54 23 -5 50 -7
61 -3 15 4 22 -1 30 -24 7 -18 30 -42 55 -58 24 -15 43 -28 43 -29 0 -9 -112
-65 -120 -60 -34 21 -174 -98 -183 -156 -3 -19 -14 -66 -25 -105 -21 -76 -16
-104 18 -104 31 0 78 -33 92 -65 9 -22 20 -30 38 -30 28 0 45 27 81 128 23 64
45 80 127 93 40 6 41 6 64 -42 26 -55 45 -63 82 -38 20 12 26 25 26 50 0 36 0
37 24 28 12 -5 13 -10 4 -30 -15 -32 3 -71 37 -80 14 -3 25 -10 25 -14 0 -13
32 -17 63 -9 25 7 33 3 58 -24 22 -23 40 -33 67 -35 83 -6 96 -9 116 -35 28
-35 78 -37 93 -4 11 25 3 56 -20 76 -14 11 -14 14 3 31 11 11 16 27 13 44 -7
34 7 33 42 -4 18 -19 43 -33 66 -36 33 -6 37 -10 42 -41 6 -37 -9 -79 -37
-102 -9 -8 -16 -23 -16 -35 0 -13 -11 -33 -25 -46 -69 -65 27 -140 105 -82 16
12 34 22 39 22 5 0 18 10 28 23 23 27 57 47 82 47 10 0 26 10 34 23 l16 22 0
-28 c1 -15 7 -30 15 -33 18 -7 40 -59 31 -73 -3 -6 -13 -11 -20 -11 -20 0 -33
-31 -26 -60 5 -17 17 -27 39 -34 30 -8 35 -6 66 27 27 29 41 37 69 37 26 0 39
6 47 20 6 11 19 20 30 20 10 0 23 8 29 17 9 18 28 13 74 -19 15 -11 27 -8 75
18 67 36 103 37 180 3 40 -18 57 -21 70 -13 13 9 24 6 50 -14 17 -13 32 -29
32 -35 0 -21 34 -47 62 -47 16 0 37 -7 45 -16 9 -8 24 -13 34 -11 22 6 24 -9
4 -43 -8 -14 -14 -36 -15 -50 0 -21 7 -29 35 -39 43 -15 44 -27 5 -60 -22 -19
-30 -36 -32 -65 -2 -31 -8 -42 -37 -61 -18 -13 -47 -47 -62 -75 -23 -43 -28
-63 -27 -116 1 -61 -1 -67 -32 -99 -37 -38 -50 -43 -50 -20 0 17 -2 18 -24 9
-13 -5 -15 -18 -10 -73 4 -36 8 -68 10 -70 2 -2 -11 -13 -28 -25 -44 -30 -54
-49 -42 -83 6 -20 17 -29 36 -31 23 -3 27 -9 33 -50 6 -43 5 -48 -24 -72 -23
-19 -31 -33 -31 -57 0 -39 30 -73 63 -73 20 0 24 -7 34 -66 7 -39 20 -75 31
-88 11 -11 23 -36 27 -53 6 -29 4 -33 -13 -33 -11 0 -30 -12 -41 -27 l-22 -28
3 40 3 40 -51 3 -52 3 6 -47 c5 -43 4 -46 -16 -40 -17 6 -25 0 -41 -31 l-19
-38 -19 32 c-10 18 -21 33 -25 33 -5 0 -8 7 -8 15 0 43 -86 54 -113 15 -7 -10
-25 -22 -40 -25 -18 -5 -27 -14 -28 -29 -2 -27 -2 -28 6 -48 6 -15 4 -16 -19
-5 -19 9 -34 31 -53 80 -14 37 -30 67 -34 67 -5 0 -13 -9 -19 -20 -16 -29 -39
-24 -51 10 -6 17 -13 30 -16 30 -3 0 -18 -12 -33 -27 l-29 -27 29 -36 c16 -20
32 -49 35 -66 6 -28 6 -28 -9 -10 -9 11 -16 24 -16 29 0 4 -15 7 -32 5 -18 -2
-32 -7 -31 -13 1 -5 -7 -20 -19 -32 -13 -14 -18 -28 -13 -42 6 -20 3 -21 -61
-21 -56 0 -70 -3 -85 -22 -22 -25 -24 -60 -7 -123 11 -39 10 -48 -2 -56 -16
-10 -81 -3 -90 10 -13 20 -53 30 -113 30 -36 -1 -71 2 -77 6 -13 8 -40 -13
-40 -31 0 -8 -11 -32 -25 -54 -17 -26 -25 -54 -25 -83 0 -36 -4 -45 -28 -59
-26 -15 -29 -15 -52 2 -20 15 -25 28 -26 67 -3 86 -4 88 -66 89 -50 1 -57 -2
-74 -28 -10 -15 -24 -28 -29 -28 -17 0 -34 35 -24 51 5 8 9 21 9 31 0 13 -7
15 -38 11 -33 -4 -41 -2 -55 21 -10 14 -26 26 -37 26 -10 0 -28 12 -39 27
l-21 26 -36 -42 c-41 -47 -59 -49 -59 -5 0 21 -5 30 -20 32 -11 1 -29 19 -40
39 -27 49 -110 83 -159 65 -47 -17 -69 -15 -84 9 -10 15 -20 19 -36 15 -25 -6
-49 14 -60 50 -3 11 -17 31 -31 44 -23 22 -26 22 -43 6 -21 -18 -28 -16 -102
24 -19 11 -42 19 -51 20 -9 0 -20 7 -23 16 -5 12 -21 15 -78 14 -40 0 -103 2
-141 6 -65 6 -68 5 -95 -23 -35 -39 -52 -44 -83 -25 -18 10 -35 12 -55 7 -16
-5 -33 -7 -37 -6 -4 1 -18 -5 -30 -14 -29 -20 -46 -19 -40 3 3 13 -6 26 -31
43 -20 13 -37 31 -38 39 -3 15 -34 19 -135 19 -33 0 -43 4 -48 21 -9 29 -19
25 -51 -21 l-28 -41 -20 41 c-11 23 -26 41 -33 41 -8 0 -36 -21 -63 -46 -44
-42 -53 -46 -82 -39 -18 3 -47 8 -64 9 -39 4 -54 13 -54 33 0 9 -9 27 -21 39
l-21 22 22 12 c33 18 24 64 -14 68 -21 3 -31 11 -40 33 -8 24 -15 29 -32 25
-25 -7 -46 14 -67 66 -8 20 -25 41 -36 47 -27 15 -97 162 -111 236 -13 66 -28
159 -36 220 -4 27 -15 48 -34 65 -15 14 -38 47 -50 73 -24 51 -64 83 -142 114
-78 31 -135 88 -175 176 -6 15 -16 27 -21 27 -20 0 -119 96 -139 135 -14 26
-35 48 -55 58 -18 9 -47 31 -64 49 -17 18 -41 40 -54 48 -20 14 -21 18 -10 59
10 40 10 45 -11 67 -32 34 -86 33 -114 -2 -19 -23 -25 -26 -50 -17 -42 14 -41
27 6 65 23 18 71 60 106 92 l63 60 46 140 c53 167 87 224 163 275 59 40 109
62 97 42 -10 -16 26 -71 67 -103 31 -24 38 -26 69 -16 31 9 44 6 117 -27 66
-29 85 -34 97 -25 18 16 18 40 -1 64 -8 11 -15 32 -15 46 0 54 -49 86 -121 81
-23 -2 -32 7 -60 56 -18 31 -35 73 -39 93 -5 34 -7 35 -55 38 -105 7 -120 70
-75 310 29 151 32 162 46 162 8 0 14 -5 14 -11z m4260 -420 c-14 -24 -42 -26
-33 -1 4 9 11 20 17 24 17 11 27 -2 16 -23z m150 -499 c0 -5 -16 -22 -35 -37
-27 -22 -35 -35 -35 -60 0 -30 -3 -33 -31 -33 -42 0 -64 -14 -79 -50 -15 -36
-40 -40 -40 -6 0 13 -3 37 -6 54 -5 25 -2 31 17 38 13 4 29 7 35 6 22 -4 64
17 64 32 0 8 14 23 30 33 17 9 30 21 30 25 0 4 11 8 25 8 14 0 25 -4 25 -10z
m1890 -502 c10 -9 36 -20 57 -24 21 -4 50 -13 64 -20 14 -7 36 -10 49 -7 15 4
27 1 35 -10 15 -20 50 -24 86 -9 15 6 30 7 35 3 5 -4 27 -13 49 -19 40 -12 65
-44 65 -83 0 -28 27 -44 53 -31 36 19 61 36 72 50 6 7 31 16 55 19 46 6 85 25
107 51 24 29 26 -15 3 -83 -32 -96 -21 -122 46 -116 14 1 23 -6 26 -17 6 -21
72 -37 113 -26 33 8 93 -13 100 -37 10 -30 48 -33 124 -10 127 39 212 23 225
-40 6 -31 6 -31 56 -24 l50 7 -20 -58 c-28 -81 -26 -154 5 -154 7 0 18 -7 25
-15 7 -8 24 -15 38 -15 24 0 25 -1 18 -52 -3 -29 -6 -72 -6 -95 0 -30 -7 -50
-25 -71 -14 -17 -25 -36 -25 -43 0 -8 -6 -26 -14 -41 -22 -41 -40 -139 -28
-147 6 -3 13 -18 17 -32 5 -21 1 -32 -22 -53 -23 -21 -26 -29 -17 -44 6 -9 22
-19 34 -20 34 -5 70 -32 70 -52 0 -9 -9 -25 -19 -34 -10 -9 -22 -37 -25 -61
-5 -33 -12 -46 -29 -51 -43 -13 -76 -45 -89 -85 -11 -34 -21 -45 -55 -58 -48
-19 -73 -38 -73 -57 0 -8 -9 -14 -20 -14 -25 0 -40 -35 -40 -93 0 -58 -23
-119 -49 -128 -12 -5 -34 -3 -53 5 -18 8 -55 16 -82 17 -47 4 -50 3 -59 -26
-5 -16 -16 -34 -23 -38 -8 -4 -14 -13 -14 -19 0 -18 63 -96 86 -107 16 -7 20
-16 17 -35 -7 -36 5 -76 22 -76 8 0 15 -3 15 -6 0 -16 -37 -65 -53 -70 -30
-10 -17 -46 21 -56 30 -8 32 -11 32 -54 0 -40 -2 -45 -19 -39 -14 4 -20 -1
-24 -24 -4 -21 -13 -30 -29 -33 -22 -3 -22 -6 -19 -93 2 -79 6 -96 31 -137 27
-43 28 -47 11 -53 -10 -3 -26 -14 -35 -24 -15 -17 -16 -25 -6 -63 7 -23 16
-51 21 -61 7 -13 5 -28 -6 -50 -10 -18 -19 -68 -22 -114 -6 -83 -6 -83 -34
-83 -18 0 -30 6 -33 18 -3 9 -22 30 -42 46 -29 23 -42 27 -70 23 -33 -6 -38
-3 -92 64 l-57 70 -18 -26 c-33 -44 -54 -50 -80 -20 -22 26 -23 26 -120 19
-98 -7 -118 -16 -72 -34 14 -5 25 -14 25 -20 0 -6 14 -16 30 -21 26 -9 30 -16
30 -46 0 -21 -7 -41 -16 -47 -14 -11 -14 -15 3 -43 28 -50 7 -60 -48 -23 -24
16 -55 30 -69 29 -30 0 -109 -21 -130 -33 -8 -6 -30 -12 -49 -16 -30 -4 -36
-10 -36 -30 0 -22 -5 -26 -45 -31 -25 -3 -62 -13 -82 -23 -21 -9 -46 -16 -56
-16 -10 0 -27 -9 -37 -20 -10 -11 -24 -20 -32 -20 -7 0 -18 -12 -24 -27 -6
-16 -16 -37 -21 -47 -9 -16 -5 -24 22 -46 28 -23 31 -30 22 -47 -9 -17 -8 -24
8 -38 18 -17 19 -20 4 -36 -14 -16 -13 -21 10 -67 14 -28 30 -53 36 -57 15 -9
-17 -65 -39 -65 -25 0 -29 -7 -23 -37 3 -19 15 -30 43 -41 22 -8 39 -21 39
-29 0 -18 25 -17 40 2 19 22 35 3 21 -24 -27 -50 41 -106 114 -94 35 6 35 5
35 -30 0 -27 -6 -39 -24 -49 -13 -7 -41 -23 -63 -35 l-40 -22 -22 26 c-19 21
-28 24 -54 17 -18 -4 -66 -10 -107 -13 -72 -6 -75 -7 -78 -33 -2 -14 -10 -32
-18 -38 -8 -7 -14 -21 -14 -31 0 -10 -4 -21 -10 -24 -18 -11 -11 -43 11 -50
22 -7 89 -141 81 -162 -2 -7 -20 -15 -40 -19 -77 -15 -139 -127 -96 -175 21
-23 66 -25 99 -3 14 9 34 14 44 11 10 -2 25 -1 32 4 21 13 49 -9 68 -54 16
-37 16 -44 3 -64 -10 -16 -24 -23 -46 -23 -17 0 -36 -4 -43 -8 -16 -10 -53
-92 -53 -119 0 -36 -11 -53 -35 -53 -13 0 -33 -8 -45 -18 -20 -16 -21 -19 -6
-31 26 -21 19 -40 -21 -58 -35 -16 -38 -22 -41 -63 -4 -54 -15 -69 -46 -63
-45 9 -89 -15 -117 -61 -15 -24 -30 -59 -34 -77 -12 -62 -16 -68 -46 -74 -28
-6 -29 -9 -23 -41 5 -30 4 -34 -15 -34 -13 0 -26 -10 -33 -25 -6 -14 -19 -25
-29 -25 -15 0 -18 7 -16 36 2 33 -1 38 -28 47 -16 5 -34 16 -38 24 -6 10 -19
12 -43 7 -34 -6 -35 -6 -28 21 6 25 5 27 -12 21 -38 -16 -49 -12 -52 19 -2 16
-10 38 -18 49 -7 11 -11 30 -8 43 8 28 -15 153 -27 153 -5 0 -9 -11 -9 -24 0
-29 -14 -44 -64 -71 l-37 -20 -19 25 c-11 14 -20 37 -20 52 0 15 -7 46 -16 68
l-16 40 -44 -26 c-54 -32 -78 -29 -80 11 -1 17 -10 53 -21 80 -15 41 -23 51
-46 53 -21 3 -27 9 -27 28 0 18 -9 29 -33 40 -18 9 -37 25 -43 37 -9 21 -25
32 -89 59 -36 16 -45 52 -16 67 10 6 22 24 26 40 3 16 13 32 21 35 19 7 18 35
-1 42 -8 4 -15 16 -15 28 0 25 -46 96 -62 96 -10 0 -8 18 7 68 5 15 3 22 -6
22 -8 0 -31 9 -52 20 -20 11 -53 20 -73 20 -43 0 -122 19 -130 31 -3 5 3 12
13 16 25 10 42 34 43 62 0 20 2 21 15 11 21 -18 48 -4 42 21 -4 15 -2 19 10
15 18 -7 73 42 73 66 0 10 -7 18 -16 18 -9 0 -29 8 -45 17 -27 16 -29 20 -23
65 6 42 4 50 -17 67 l-24 20 -17 -37 -17 -37 -10 26 c-10 29 -33 42 -56 33
-11 -5 -15 1 -15 19 0 25 -19 38 -60 42 -20 1 -64 32 -53 36 4 2 18 15 30 29
22 25 22 27 7 75 -21 70 -24 146 -6 167 21 25 8 51 -23 46 -15 -3 -26 0 -29 9
-4 10 -15 13 -35 8 -23 -5 -31 -1 -45 20 -9 14 -23 25 -31 25 -17 0 -20 16 -5
25 6 4 3 17 -9 34 l-20 27 50 37 c28 20 56 37 63 37 7 0 30 -12 51 -26 l38
-25 31 33 c17 19 44 43 60 54 24 17 29 30 34 73 4 44 9 55 29 64 23 10 25 15
19 54 -3 23 -2 45 3 47 5 3 6 44 4 91 -5 73 -3 85 11 91 9 4 24 -1 35 -10 23
-21 45 -20 105 3 84 32 66 77 -50 126 -35 15 -64 33 -64 41 0 8 4 14 9 14 5 0
16 7 24 15 22 21 6 80 -32 119 -40 41 -39 54 4 62 28 5 36 12 45 40 7 19 9 41
6 49 -3 8 -1 17 4 20 13 8 13 81 0 105 -8 15 -6 22 12 34 l21 15 -28 63 c-15
35 -45 82 -67 105 l-40 41 26 17 c34 23 37 86 5 108 l-20 15 24 26 c18 19 27
22 35 14 20 -20 33 32 15 61 -13 20 -13 31 -4 62 7 24 8 46 3 56 -5 10 -12 37
-16 60 -3 23 -17 59 -31 79 -25 36 -31 67 -26 131 2 31 0 32 -40 35 -37 3 -44
7 -50 30 -6 24 -3 31 22 49 28 20 29 24 27 87 -3 70 -9 82 -44 82 -33 0 -39
31 -12 52 13 10 31 20 41 24 16 5 17 13 13 57 l-6 52 54 42 c47 37 54 47 59
88 4 26 4 57 1 69 -8 32 45 120 93 155 38 28 41 33 36 64 -5 32 -2 37 40 68
78 59 84 89 19 89 -98 1 -85 64 20 96 33 10 69 27 80 38 14 15 31 20 76 20 54
0 57 -2 60 -26 4 -30 29 -39 77 -26 17 5 47 6 67 2 52 -8 72 1 104 47 23 34
32 40 53 35 108 -22 137 -30 148 -43 15 -20 186 -36 219 -21 13 6 24 17 24 25
0 7 7 16 15 19 8 4 15 12 15 20 0 8 10 14 24 14 27 0 51 20 61 50 4 14 15 20
36 20 16 0 29 -4 29 -9 0 -4 15 -12 33 -17 18 -5 36 -19 42 -32 5 -12 13 -22
17 -22 5 0 8 -6 8 -14 0 -30 68 -29 98 1 8 8 28 13 46 11 47 -3 59 9 53 49 -6
35 -6 35 66 67 74 34 73 34 117 -6z m-5760 -1336 c14 -3 36 -13 49 -23 13 -11
32 -19 42 -19 10 0 21 -9 24 -20 4 -11 18 -27 33 -35 15 -8 21 -14 14 -15 -15
0 -32 -39 -25 -57 3 -7 14 -15 25 -19 11 -3 17 -8 15 -11 -3 -2 -1 -17 4 -33
10 -27 49 -47 68 -35 5 3 24 -2 43 -10 46 -18 74 -10 125 37 24 21 44 38 47
38 2 0 13 -16 25 -35 24 -42 39 -44 75 -10 15 14 31 23 36 20 5 -3 42 -8 82
-11 62 -4 76 -8 95 -29 12 -14 27 -25 34 -25 6 0 9 -6 6 -14 -3 -8 2 -21 12
-30 19 -17 81 -22 81 -7 0 16 79 24 109 12 32 -14 64 -4 100 30 18 17 34 22
70 20 25 -1 80 -2 122 -4 42 -1 82 -7 90 -13 8 -6 32 -17 54 -24 22 -7 45 -20
51 -29 8 -9 30 -16 61 -17 61 -1 73 -8 73 -39 0 -26 42 -55 80 -55 11 0 23 -7
26 -15 7 -17 84 -21 113 -6 12 7 32 5 64 -7 37 -13 48 -23 61 -54 8 -22 21
-38 30 -38 10 0 16 -9 16 -25 0 -24 25 -45 54 -45 9 0 28 14 43 30 22 26 28
28 35 15 5 -8 18 -15 30 -15 11 0 36 -14 55 -31 20 -17 42 -28 50 -25 8 3 11
2 8 -4 -11 -17 6 -57 30 -70 30 -16 72 -6 80 20 5 16 15 20 46 20 41 0 45 -6
40 -59 -4 -44 8 -69 44 -91 32 -20 39 -21 68 -9 47 19 57 33 57 76 0 22 12 62
27 94 l28 56 78 -1 c50 -1 81 -6 86 -14 9 -15 65 -32 107 -32 37 0 59 34 51
77 -3 15 -8 45 -12 65 -11 56 4 69 80 67 70 -2 85 4 85 32 0 11 8 34 17 52
l17 32 6 -25 c5 -20 13 -26 43 -28 35 -3 37 -1 37 25 0 15 -4 43 -9 61 -8 28
-7 32 9 32 10 0 24 2 32 5 8 3 20 -11 32 -40 21 -53 93 -111 112 -91 18 19 21
39 13 69 -6 22 -4 29 9 34 9 4 30 17 45 30 25 20 30 21 43 9 8 -8 14 -20 14
-26 0 -6 7 -13 15 -16 8 -4 15 -15 15 -25 0 -22 43 -43 71 -34 11 4 22 17 25
31 4 14 13 24 24 24 24 0 40 22 43 59 1 19 8 31 16 31 10 0 12 -8 8 -29 -4
-17 -1 -36 7 -47 12 -15 17 -16 45 -5 17 8 31 19 31 27 0 19 19 27 34 15 11
-9 11 -18 1 -49 -9 -25 -10 -43 -3 -55 8 -15 3 -25 -26 -51 -40 -36 -45 -64
-16 -91 27 -24 25 -47 -5 -73 -14 -12 -25 -28 -25 -36 0 -8 19 -36 43 -62 23
-27 50 -66 60 -87 15 -34 16 -40 2 -61 -13 -20 -14 -30 -3 -70 10 -37 10 -51
0 -66 -7 -11 -12 -35 -12 -54 0 -31 -3 -35 -37 -43 -33 -7 -38 -13 -41 -40 -2
-25 5 -40 32 -71 43 -47 44 -63 11 -96 -38 -38 -23 -62 66 -101 40 -18 74 -38
74 -45 0 -7 -18 -19 -39 -27 -34 -11 -42 -11 -62 2 -31 20 -57 19 -76 -2 -12
-14 -17 -49 -21 -141 -4 -112 -6 -124 -26 -138 -16 -12 -21 -25 -21 -60 0 -45
-3 -50 -69 -106 l-32 -27 -51 20 c-42 16 -53 18 -68 7 -9 -7 -38 -28 -63 -47
-49 -36 -60 -68 -33 -90 8 -7 12 -21 9 -31 -6 -24 67 -100 96 -100 10 0 29 -6
42 -12 20 -11 24 -20 22 -58 0 -25 5 -71 13 -103 11 -42 12 -63 4 -77 -12 -23
-42 -28 -34 -6 3 9 -5 21 -19 31 -24 16 -45 15 -123 0 -30 -6 -37 -31 -18 -60
9 -14 18 -53 21 -87 5 -73 25 -99 55 -72 16 16 20 15 52 -10 19 -14 38 -35 41
-46 3 -11 12 -20 20 -20 7 0 20 -3 29 -6 22 -9 21 39 -1 78 -16 25 -22 28 -49
23 -29 -5 -32 -3 -38 26 -15 77 5 97 55 55 17 -14 41 -26 54 -26 17 0 26 -8
34 -30 8 -24 16 -30 39 -30 34 0 42 -14 42 -74 0 -30 6 -48 20 -61 27 -25 34
-14 20 30 -10 32 -10 39 7 57 18 20 18 20 23 -18 4 -30 12 -43 37 -59 36 -22
41 -33 18 -40 -59 -19 -98 -49 -107 -82 -5 -18 -16 -33 -28 -36 -11 -3 -22
-13 -26 -24 -3 -10 -15 -37 -27 -60 -18 -35 -19 -46 -9 -68 12 -25 11 -26 -21
-21 -102 16 -119 16 -146 2 -16 -9 -32 -27 -35 -41 -9 -35 -29 -27 -37 14 -9
42 -16 48 -40 33 -11 -7 -29 -10 -40 -7 -15 5 -19 2 -19 -14 0 -26 -40 -28
-93 -6 -34 14 -36 14 -42 -5 -4 -11 -10 -18 -14 -16 -4 3 -22 -4 -39 -15 -45
-26 -57 -24 -80 15 -16 27 -25 33 -42 29 -15 -4 -31 4 -55 27 l-34 33 -38 -24
c-21 -13 -39 -27 -41 -31 -2 -4 -12 -8 -23 -8 -25 0 -24 -14 2 -31 20 -14 20
-14 -11 -38 -18 -13 -49 -25 -69 -28 -36 -5 -38 -4 -50 36 -6 23 -15 41 -20
41 -4 0 -20 -13 -36 -30 -35 -36 -55 -38 -55 -6 0 28 -86 111 -137 132 -17 8
-34 19 -36 26 -4 9 -15 2 -34 -20 -15 -18 -32 -32 -36 -32 -5 0 -20 -13 -34
-30 -30 -36 -49 -38 -57 -5 -3 13 -20 32 -36 40 -21 11 -30 23 -30 40 0 37
-17 72 -38 77 -33 9 -52 -10 -52 -52 0 -22 -3 -40 -6 -40 -3 0 -25 5 -50 11
-43 11 -54 22 -34 34 5 3 10 17 10 30 0 17 -8 26 -29 33 -16 6 -38 19 -49 29
-45 40 -54 45 -78 39 -19 -5 -24 -2 -24 12 0 21 -87 54 -121 45 -12 -4 -32 3
-51 17 l-30 22 -23 -22 -24 -23 -52 82 c-47 73 -55 81 -83 81 -26 -1 -35 -8
-58 -46 -16 -25 -28 -52 -28 -60 0 -8 -8 -15 -17 -16 -10 -1 -25 -2 -33 -3 -8
-1 -25 -6 -37 -13 -43 -23 -110 -8 -78 18 20 16 19 39 -3 68 -17 22 -21 23
-61 12 -23 -6 -56 -8 -73 -4 -25 5 -30 3 -25 -9 6 -17 -15 -41 -26 -30 -4 3
-7 19 -7 33 0 30 -16 48 -47 53 -12 2 -28 8 -36 15 -8 7 -27 10 -44 6 -38 -7
-73 10 -73 36 0 11 -10 28 -22 40 -18 17 -24 18 -37 7 -9 -7 -47 -29 -86 -48
-38 -18 -86 -46 -106 -61 -36 -27 -38 -27 -73 -13 -36 15 -38 15 -68 -10 -25
-21 -40 -26 -67 -23 -20 3 -62 -4 -94 -14 -74 -23 -76 -23 -87 6 -9 24 -10 24
-65 11 -52 -12 -56 -11 -66 6 -6 12 -21 19 -38 19 -16 0 -39 9 -53 20 -17 13
-28 16 -35 9 -8 -8 -17 -7 -32 1 -18 9 -27 7 -53 -11 -34 -24 -60 -18 -67 17
-2 10 -19 35 -38 54 l-35 35 25 9 c29 11 55 76 34 88 -6 3 -27 18 -46 32 -19
14 -38 23 -42 20 -16 -9 -9 66 7 91 10 15 26 25 40 25 12 0 26 4 29 10 8 13
68 0 82 -19 7 -9 13 -24 13 -33 0 -11 15 -24 37 -33 20 -8 37 -14 37 -13 35
96 45 133 36 142 -5 5 -10 20 -10 31 0 28 -32 57 -54 49 -13 -5 -15 -1 -10 24
4 17 1 45 -5 63 -8 23 -8 42 0 69 10 32 8 43 -14 87 -16 30 -24 59 -20 72 4
14 -2 29 -16 44 -12 12 -37 41 -56 64 l-36 41 27 21 c32 25 23 45 -17 36 -34
-8 -33 -10 -14 45 8 23 15 53 15 67 0 13 7 26 15 29 8 3 17 14 20 24 3 11 15
22 26 25 10 4 19 13 19 22 0 9 18 31 40 50 32 27 40 41 40 68 0 25 5 34 21 38
17 5 20 11 15 29 -3 13 -6 30 -6 39 0 8 -16 23 -35 32 -33 16 -36 16 -54 -2
-10 -10 -22 -29 -27 -42 l-9 -24 -44 21 -44 21 36 32 c59 54 71 140 19 141 -9
0 -12 13 -11 44 2 36 -3 51 -29 84 -30 37 -31 40 -12 45 12 3 20 14 20 27 0
15 -5 20 -14 17 -7 -3 -23 7 -34 23 l-21 28 26 23 c43 41 53 69 38 106 -7 17
-21 36 -32 41 -16 10 -16 12 -2 24 21 18 45 58 53 90 4 19 19 34 46 48 34 18
40 25 40 53 -1 36 -20 67 -42 67 -8 0 -31 -18 -51 -40 -19 -22 -40 -40 -45
-40 -5 0 -17 12 -27 26 -16 24 -16 27 1 45 9 10 25 21 35 24 16 5 19 16 19 61
0 43 3 54 16 54 9 0 29 8 46 18 23 13 28 22 25 41 -7 35 13 73 32 65 9 -4 27
-9 41 -12z m3630 -2433 c0 -5 -10 -9 -21 -9 -12 0 -27 -8 -34 -17 -11 -14 -10
-22 6 -42 22 -28 25 -71 5 -71 -8 0 -17 -6 -19 -12 -3 -7 -6 11 -6 40 -1 29
-8 66 -16 83 -17 32 -14 35 40 41 34 4 45 1 45 -13z"/>
</g>
</svg>
